# xmcd
#
# Track frame offsets:
#	150
#	13399
#	24986
#	38974
#	51553
#	63576
#	80023
#	97885
#	113884
#	130721
#	145422
#	168396
#	191544
#	209402
#	230574
#
# Disc length: 3318 seconds
#
# Revision: 0
# Processed by: cddbd v1.5.2PL0 Copyright (c) Steve Scherf et al.
# Submitted via: dBpowerAMP V4.0
#
DISCID=d80cf40f
DTITLE=Various Artist - Noticias 24
DYEAR=1995
DGENRE=Blues
TTITLE0=Jair Rodrígues - Orgulho do sambista
TTITLE1=Wilson Simonal - Cabeça (Franco)
TTITLE2=Toquinho - Deixa acontecer
TTITLE3=Nara Leão - Camisa amarela
TTITLE4=Emilio Santiago - Minhas madrugadas
TTITLE5=Timbalada - Formigueiro
TTITLE6=Gera Samba - É o Tchan (potpourri)
TTITLE7=Banda Cheiro de Amor - Porto Seguro
TTITLE8=Netinho - Menina linda
TTITLE9=Caetano Veloso - A outra banda da terra
TTITLE10=Chico Buarque y Thelma Costa - Eu te amo
TTITLE11=Gal Costa - Trem das onze
TTITLE12=Maria Bethânia - A primeira manhã
TTITLE13=Fafá de Belém - Sòzinha
TTITLE14=Milton Nascimento - Portal da Cor
EXTD=Martincho
EXTT0=
EXTT1=
EXTT2=
EXTT3=
EXTT4=
EXTT5=
EXTT6=
EXTT7=
EXTT8=
EXTT9=
EXTT10=
EXTT11=
EXTT12=
EXTT13=
EXTT14=
PLAYORDER=
